<?xml version="1.0" encoding="utf-8"?>
<!-- Generator: Adobe Illustrator 19.0.0, SVG Export Plug-In . SVG Version: 6.00 Build 0)  -->
<svg version="1.1" id="layer" xmlns="http://www.w3.org/2000/svg" xmlns:xlink="http://www.w3.org/1999/xlink" x="0px" y="0px"
	 viewBox="-153 -46 652 652" style="enable-background:new -153 -46 652 652;" xml:space="preserve">
<style type="text/css">
	.st0{fill:#007179;}
</style>
<path d="M26,327.5v4.9h8.9v4.5H26v5.3h11.3v4.6H20.5v-24h16.8v4.6L26,327.5L26,327.5z M32.7,318.3l-7.8,2.9l-0.9-2.1l7.5-3.8
	L32.7,318.3z M60.5,332.2c0-2.7-0.9-5.1-3.9-5.1c-3.9,0-4.3,5.2-4.3,8.1c0,3.3,0.4,7.5,4.5,7.5c2.6,0,3.8-2.2,4.1-4.5l5.4,0.3
	c-0.6,5.5-4.3,8.7-9.7,8.7c-7,0-10.4-5.8-10.4-12.3c0-6.6,3.5-12.3,10.6-12.3c5.9,0,8.9,3.5,9.5,9.3L60.5,332.2z M78.2,343.4
	c-1.7-2.5-2.5-5.6-2.5-8.6c0-6.4,3.1-12.3,10.1-12.3c3.1,0,5.6,1,7.5,3.7c1.7,2.3,2.5,5.7,2.5,8.6c0,2.7-0.7,6-2.2,8.3
	c-1.8,2.7-4.6,4.1-7.8,4.1C82.7,347.2,80.1,346.1,78.2,343.4z M82.3,329.8c-0.5,1.4-0.8,3.5-0.8,5c0,3,0.4,7.8,4.3,7.8
	c1.9,0,2.9-0.9,3.5-2.7c0.5-1.5,0.7-3.5,0.7-5c0-1.7-0.2-3.8-0.9-5.4c-0.7-1.6-1.7-2.3-3.4-2.3C84,327.1,82.9,328.1,82.3,329.8z
	 M121.1,342.1v4.8h-15v-24h5.5v19.2H121.1z M135.7,327.5v4.9h8.9v4.5h-8.9v5.3h11.3v4.6h-16.8v-24h16.8v4.6L135.7,327.5L135.7,327.5
	z M180.9,322.9c3.4,0,6.3,0.2,8.9,2.7c2.5,2.4,3.6,5.8,3.6,9.2c0,3.2-1,6.3-3.1,8.7c-2.3,2.6-5.2,3.3-8.5,3.3h-7.8v-24H180.9z
	 M179.6,342.3h1.9c2.3,0,3.8-0.5,5-2.6c0.9-1.5,1.3-3.4,1.3-5.2c0-1.9-0.5-3.9-1.7-5.4c-1.3-1.7-2.7-1.9-4.6-1.9h-1.9V342.3z
	 M206.7,327.9h-2.4v-5h5v4.4l-3.1,5.4h-1.9L206.7,327.9z M226.4,346.9h-5.5v-24h5.5V346.9z M256,346.9h-4.7l-9-16.1h-0.1v16.1h-4.3
	v-24h5.9l7.9,14.1h0.1v-14.1h4.3L256,346.9L256,346.9z M276.1,338.5V334h9.7v12.8h-2.5l-0.8-2.8c-1.8,2.2-3.7,3.1-6.4,3.1
	c-6.9,0-9.8-5.8-9.8-12.1c0-6.5,3.1-12.6,10.2-12.6c5.1,0,8.5,3.1,9.2,8.2l-5.2,0.7c-0.2-2.4-1.5-4.4-4.2-4.4
	c-3.9,0-4.5,5.1-4.5,8.1c0,3.1,0.9,7.5,4.7,7.5c2.4,0,4.1-1.7,3.9-4.2L276.1,338.5L276.1,338.5z M302.4,327.5v4.9h8.9v4.5h-8.9v5.3
	h11.3v4.6h-16.8v-24h16.8v4.6L302.4,327.5L302.4,327.5z M309.1,318.3l-7.8,2.9l-0.9-2.1l7.5-3.8L309.1,318.3z M341.8,346.9h-4.7
	l-9-16.1h-0.1v16.1h-4.3v-24h5.9l7.9,14.1h0.1v-14.1h4.3L341.8,346.9L341.8,346.9z M358.7,346.9h-5.5v-24h5.5V346.9z M375.8,327.5
	v4.9h8.9v4.5h-8.9v5.3h11.3v4.6h-16.8v-24h16.8v4.6L375.8,327.5L375.8,327.5z M415.5,337.4c0,2.6,0,5.4-1.9,7.3
	c-1.9,1.9-4.7,2.5-7.2,2.5c-2.5,0-5.3-0.4-7.2-2.1c-2.3-2.1-2.4-4.8-2.4-7.8v-14.5h6v14.5c0,1.1,0,2.7,0.5,3.7
	c0.7,1.3,2.2,1.6,3.5,1.6c1.1,0,2.7-0.4,3.4-1.3c0.8-1.1,0.7-2.8,0.7-4v-14.5h4.7L415.5,337.4L415.5,337.4z M432.1,346.9h-5.5v-24
	h9.9c2.1,0,4.2,0,6,1.2c1.9,1.3,3,3.6,3,6c0,2.7-1.5,5.2-4.1,6.2l4.4,10.6h-6.1l-3.6-9.5h-4L432.1,346.9L432.1,346.9z M432.1,333.2
	h3c1.1,0,2.4,0.1,3.4-0.5c0.9-0.6,1.4-1.7,1.4-2.7c0-0.9-0.5-2-1.3-2.4c-0.9-0.6-2.5-0.5-3.5-0.5h-2.9L432.1,333.2L432.1,333.2z
	 M467.9,329.7c-0.7-2-2-2.8-4.1-2.8c-1.5,0-3.3,0.4-3.3,2.2c0,1.7,2.1,2.2,3.4,2.4c1.9,0.4,4.5,0.9,6.1,2c1.9,1.3,3.1,3.3,3.1,5.7
	c0,2.3-1.1,4.6-2.9,6c-1.9,1.5-4.5,2-6.8,2c-4.4,0-8.4-2-9.5-6.6l5.1-1.2c0.7,2.5,2.5,3.4,4.9,3.4c1.6,0,3.7-0.6,3.7-2.6
	c0-2-2.7-2.4-4.1-2.7c-4.2-0.9-8.3-2.1-8.3-7.4c0-2.2,0.9-4.2,2.5-5.6c1.7-1.5,3.7-2,5.9-2c4.1,0,7.5,1.5,8.9,5.6L467.9,329.7z
	 M357.3,295c0,0.6-0.1,1.1-0.3,1.5c-0.2,0.5-0.5,0.9-0.9,1.3c-0.4,0.4-0.8,0.6-1.3,0.9c-0.5,0.2-1,0.3-1.5,0.3
	c-0.5,0-1.1-0.1-1.5-0.3c-0.5-0.2-0.9-0.5-1.3-0.8c-0.4-0.4-0.6-0.8-0.9-1.3c-0.2-0.5-0.3-1-0.3-1.6c0-0.5,0.1-1,0.3-1.5
	c0.2-0.5,0.5-0.9,0.8-1.3c0.4-0.4,0.8-0.6,1.3-0.9c0.5-0.2,1-0.3,1.6-0.3c0.5,0,1,0.1,1.5,0.3c0.5,0.2,0.9,0.5,1.3,0.9
	c0.4,0.4,0.6,0.8,0.9,1.3C357.2,294,357.3,294.5,357.3,295z"/>
<path class="st0" d="M37.7,246v15.1h27.9v14.1H37.7v16.6h35.5v14.5H20.5v-74.7h52.6V246H37.7z M121.2,260.4c-0.1-8.3-2.9-16-12.4-16
	c-12.1,0-13.3,16.1-13.3,25.2c0,10.2,1.2,23.4,14.2,23.4c8.1,0,11.8-6.9,12.8-14.1l16.8,1.1c-1.8,17.1-13.4,27.2-30.4,27.2
	c-21.9,0-32.6-18.1-32.6-38.5c0-20.7,11-38.5,33.1-38.5c18.5,0,27.9,10.9,29.9,28.9L121.2,260.4z M164.5,246v15.1h27.9v14.1h-27.9
	v16.6h35.5v14.5h-52.6v-74.7h52.6V246H164.5z M-11.2,346.9h-115.5V231.3h35.6v109.7l44.6-25.7v-84h35.4V346.9z M-53.2,311.3
	l-31,17.7v-97.5l31-17.8V311.3z M237.8,282.1c1.2,0,2.4,0.2,3.4,0.6c1,0.4,1.9,1,2.7,1.7c0.7,0.7,1.3,1.6,1.7,2.6
	c0.4,1,0.6,2,0.6,3.2c0,1.1-0.2,2.2-0.6,3.2c-0.4,1-1,1.8-1.7,2.5c-0.7,0.7-1.6,1.2-2.5,1.6c-1,0.4-2,0.6-3.2,0.6H229v8h-4.2v-23.9
	L237.8,282.1L237.8,282.1z M229,286v8.1h8.9c0.9,0,1.6-0.1,2.2-0.4c0.6-0.3,1-0.6,1.3-1c0.3-0.4,0.6-0.9,0.7-1.3
	c0.1-0.5,0.2-0.9,0.2-1.3c0-0.4-0.1-0.8-0.3-1.3c-0.2-0.5-0.5-0.9-0.8-1.3c-0.4-0.4-0.8-0.7-1.4-1c-0.5-0.3-1.2-0.4-1.9-0.4L229,286
	L229,286z M262.3,282.1l10.5,23.9h-4.6l-2.3-5h-13.6l-2.2,5h-4.6l10.5-23.9H262.3z M259.2,285.4l-4.9,11.3h9.8L259.2,285.4z
	 M280.3,298v8h-4.2v-23.9h13.3c1.2,0,2.4,0.2,3.4,0.6c1,0.4,1.9,1,2.7,1.7c0.7,0.7,1.3,1.6,1.7,2.6c0.4,1,0.6,2,0.6,3.2
	c0,1.8-0.5,3.4-1.4,4.7c-0.9,1.3-2.2,2.2-3.8,2.8l6.1,8.4h-5.2l-5.8-8H280.3z M280.3,286v8.1h9.1c0.9,0,1.6-0.1,2.2-0.4
	c0.6-0.3,1-0.6,1.3-1c0.3-0.4,0.5-0.9,0.7-1.3c0.1-0.5,0.2-0.9,0.2-1.3c0-0.4-0.1-0.8-0.3-1.3c-0.2-0.5-0.4-0.9-0.8-1.3
	c-0.4-0.4-0.8-0.7-1.4-1c-0.5-0.3-1.2-0.4-1.9-0.4L280.3,286L280.3,286z M307.2,305.9h-4.7v-23.9h4.7V305.9z M328.8,288.4
	c-0.5-0.5-1.1-0.9-1.7-1.2c-0.6-0.3-1.2-0.6-1.9-0.8c-0.6-0.2-1.2-0.3-1.8-0.4c-0.6-0.1-1.2-0.1-1.7-0.1c-0.6,0-1.1,0-1.8,0.1
	c-0.6,0.1-1.2,0.2-1.8,0.4c-0.6,0.2-1,0.5-1.4,0.9c-0.4,0.4-0.6,0.9-0.6,1.5c0,0.4,0.1,0.7,0.3,1.1c0.2,0.4,0.7,0.7,1.4,0.9
	c0.6,0.1,1.2,0.3,1.9,0.4c0.7,0.1,1.5,0.3,2.3,0.4c0.8,0.1,1.5,0.3,2.3,0.4c0.7,0.1,1.4,0.2,1.9,0.4c1.1,0.3,2.1,0.6,2.8,1
	c0.7,0.4,1.3,0.9,1.8,1.5c0.4,0.6,0.8,1.2,0.9,1.9c0.2,0.7,0.3,1.4,0.3,2.2c0,1.3-0.2,2.4-0.7,3.4c-0.5,1-1.2,1.7-2,2.4
	c-0.9,0.6-1.9,1.1-3,1.4c-1.2,0.3-2.4,0.5-3.7,0.5c-1.8,0-3.3-0.2-4.6-0.5c-1.3-0.3-2.5-0.7-3.5-1.2c-1-0.5-1.8-1-2.4-1.6
	c-0.6-0.6-1.1-1.1-1.4-1.6l3.6-2.5c0.4,0.6,0.9,1,1.6,1.5c0.6,0.4,1.3,0.8,2.1,1.1c0.8,0.3,1.5,0.5,2.3,0.7c0.8,0.1,1.5,0.2,2.2,0.2
	c0.8,0,1.5-0.1,2.2-0.2c0.7-0.1,1.2-0.4,1.7-0.7s0.9-0.7,1.1-1.1c0.3-0.5,0.4-1,0.4-1.6c0-0.7-0.2-1.2-0.5-1.6
	c-0.3-0.4-0.8-0.7-1.3-0.9c-0.6-0.2-1.2-0.4-2-0.5s-1.6-0.2-2.4-0.3c-0.9-0.1-1.8-0.2-2.7-0.4c-0.9-0.1-1.9-0.4-2.8-0.7
	c-1.5-0.5-2.5-1.3-3.2-2.2c-0.7-0.9-1-2-1-3.3c0-1.3,0.3-2.5,0.8-3.4c0.6-0.9,1.3-1.6,2.2-2.2c0.9-0.6,2-1,3.1-1.2
	c1.2-0.2,2.4-0.4,3.6-0.4c1.2,0,2.3,0.1,3.4,0.3c1.1,0.2,2.1,0.5,3,0.9c0.9,0.4,1.7,0.8,2.4,1.2c0.7,0.5,1.3,0.9,1.8,1.4
	L328.8,288.4z M379.2,282.1v19.6h14.5v4.2h-18.7v-23.9C374.9,282.1,379.2,282.1,379.2,282.1z M413.6,282.1h5.3l-11,12.4v11.4h-4.4
	v-11.3l-10.7-12.5h5.4l7.5,8.7L413.6,282.1z M419.1,294.1c0-1.8,0.3-3.5,1-5c0.7-1.5,1.7-2.8,2.9-3.9c1.2-1.1,2.6-1.9,4.2-2.5
	c1.6-0.6,3.3-0.9,5.2-0.9c1.8,0,3.6,0.3,5.2,0.9c1.6,0.6,3,1.4,4.2,2.5c1.2,1.1,2.2,2.4,2.9,3.9c0.7,1.5,1,3.2,1,5
	c0,1.8-0.3,3.5-1,5c-0.7,1.5-1.6,2.8-2.9,3.9c-1.2,1.1-2.6,1.9-4.2,2.5c-1.6,0.6-3.3,0.9-5.2,0.9c-1.8,0-3.6-0.3-5.2-0.9
	c-1.6-0.6-3-1.4-4.2-2.5c-1.2-1.1-2.2-2.4-2.9-3.9C419.4,297.6,419.1,295.9,419.1,294.1z M423.3,294.1c0,1.2,0.2,2.3,0.7,3.3
	s1.1,1.9,1.9,2.6c0.8,0.7,1.8,1.3,2.9,1.7c1.1,0.4,2.3,0.6,3.6,0.6c1.3,0,2.5-0.2,3.6-0.6c1.1-0.4,2.1-1,2.9-1.7
	c0.8-0.7,1.5-1.6,1.9-2.6c0.5-1,0.7-2.1,0.7-3.3c0-1.2-0.2-2.3-0.7-3.3c-0.5-1-1.1-1.9-1.9-2.6c-0.8-0.7-1.8-1.3-2.9-1.7
	c-1.1-0.4-2.3-0.6-3.6-0.6c-1.3,0-2.5,0.2-3.6,0.6c-1.1,0.4-2.1,1-2.9,1.7c-0.8,0.7-1.5,1.6-1.9,2.6
	C423.5,291.8,423.3,292.9,423.3,294.1z M468.8,298.2v-16.1h4.4v23.9h-3.7l-15.8-18.9v18.9h-4.4v-23.9h5.9L468.8,298.2z"/>
</svg>
